<svg xmlns="http://www.w3.org/2000/svg" width="37" height="13" fill="none"><path fill="#fff" d="M6.587 9.07c0-.234-.037-.442-.11-.625a1.22 1.22 0 0 0-.367-.5c-.177-.15-.427-.297-.75-.437a9.958 9.958 0 0 0-1.218-.446 13.511 13.511 0 0 1-1.5-.554 5.708 5.708 0 0 1-1.188-.719 3.074 3.074 0 0 1-.789-.945 2.647 2.647 0 0 1-.281-1.242c0-.464.096-.886.289-1.266.198-.38.476-.708.836-.984A3.999 3.999 0 0 1 2.798.703 5.429 5.429 0 0 1 4.438.47c.844 0 1.57.156 2.18.469.615.312 1.086.731 1.414 1.257.334.526.5 1.107.5 1.743H6.587c0-.376-.08-.706-.242-.993a1.642 1.642 0 0 0-.72-.687c-.317-.167-.72-.25-1.21-.25-.464 0-.849.07-1.156.21-.308.141-.537.331-.688.571-.15.24-.226.51-.226.813 0 .213.05.408.148.586.1.171.25.333.453.484.203.146.459.284.766.414s.67.255 1.086.375c.63.187 1.18.396 1.648.625.469.224.86.48 1.172.766.313.286.547.612.703.976.156.36.235.768.235 1.227 0 .479-.097.911-.29 1.297-.192.38-.468.705-.828.976a3.96 3.96 0 0 1-1.28.617c-.496.14-1.048.211-1.657.211a6.084 6.084 0 0 1-1.617-.219 4.768 4.768 0 0 1-1.438-.664 3.43 3.43 0 0 1-1.031-1.125C.16 9.695.032 9.167.032 8.563h1.961c0 .37.063.684.188.945.13.26.31.474.539.64.229.162.494.282.797.36.307.078.635.117.984.117.458 0 .841-.065 1.148-.195.313-.13.547-.313.704-.547a1.43 1.43 0 0 0 .234-.813Zm7.882 3.086c-.625 0-1.19-.101-1.695-.304a3.744 3.744 0 0 1-1.281-.868 3.844 3.844 0 0 1-.805-1.304 4.569 4.569 0 0 1-.281-1.617V7.75c0-.661.096-1.26.289-1.797a4.08 4.08 0 0 1 .804-1.375c.344-.385.75-.68 1.22-.883a3.79 3.79 0 0 1 1.522-.304c.605 0 1.133.101 1.586.304.454.203.829.49 1.125.86.303.364.527.8.672 1.304.151.506.227 1.063.227 1.672v.805H11.32V6.984h4.671v-.148a2.644 2.644 0 0 0-.203-.953 1.62 1.62 0 0 0-.554-.719c-.25-.182-.584-.273-1-.273-.313 0-.591.067-.836.203-.24.13-.44.32-.602.57a3 3 0 0 0-.375.906 5.094 5.094 0 0 0-.125 1.18v.313c0 .37.05.713.149 1.03.104.313.255.587.453.821.198.234.437.42.719.555.28.13.601.195.96.195.454 0 .857-.091 1.211-.273.354-.183.662-.44.922-.774l.992.961c-.182.266-.419.521-.71.766-.292.24-.649.435-1.07.586-.418.15-.902.226-1.454.226Zm7.359-6.804V12h-1.883V3.547h1.773l.11 1.805Zm-.336 2.109-.61-.008a5.497 5.497 0 0 1 .25-1.648c.167-.5.396-.93.688-1.29.297-.359.651-.635 1.063-.827.411-.198.87-.297 1.375-.297.406 0 .773.057 1.101.171.333.11.617.29.852.54.24.25.422.575.547.976.125.396.187.883.187 1.461V12h-1.89V6.531c0-.406-.06-.726-.18-.96a1.005 1.005 0 0 0-.508-.508c-.219-.105-.492-.157-.82-.157-.323 0-.612.068-.868.203a1.95 1.95 0 0 0-.648.555 2.688 2.688 0 0 0-.398.813c-.094.307-.141.635-.141.984Zm13.171 2.789V0h1.89v12h-1.71l-.18-1.75Zm-5.5-2.383v-.164c0-.64.076-1.224.227-1.75a4.12 4.12 0 0 1 .656-1.367c.286-.385.635-.68 1.047-.883a3.035 3.035 0 0 1 1.39-.312c.51 0 .959.099 1.344.296.386.198.714.482.985.852.27.365.486.802.648 1.313a8.62 8.62 0 0 1 .344 1.687v.524a8.45 8.45 0 0 1-.344 1.656 4.45 4.45 0 0 1-.648 1.297c-.271.364-.602.646-.993.843-.385.198-.836.297-1.351.297-.51 0-.972-.107-1.383-.32a3.057 3.057 0 0 1-1.04-.899 4.23 4.23 0 0 1-.655-1.359 6.176 6.176 0 0 1-.227-1.71Zm1.883-.164v.164c0 .386.034.745.102 1.078.072.334.184.628.335.883.151.25.347.448.586.594.245.14.537.21.875.21.427 0 .779-.093 1.055-.28a1.92 1.92 0 0 0 .648-.758c.162-.323.271-.683.329-1.078V7.102a3.448 3.448 0 0 0-.196-.86 2.297 2.297 0 0 0-.383-.695 1.613 1.613 0 0 0-.601-.469 1.885 1.885 0 0 0-.836-.172c-.344 0-.635.073-.875.219-.24.146-.438.346-.594.602a2.962 2.962 0 0 0-.336.89c-.073.339-.11.7-.11 1.086Z"/></svg>